Stephen King's The Mist Bluray 2007 BluRay 1080p DTS x264-LoNeWoLf

Encoded by Tequila-Bob a.k.a. bobnjeff a.k.a.LoNeWoLf

Source - NTSC BluRay Disc.
 
http://www.imdb.com/title/tt0884328/

[color=yellow]Genres:Horror | Sci-Fi | Thriller 

Rated R for violence, terror and gore, and language

The Mist (I) (2007) 
  126 min  -  Horror | Sci-Fi | Thriller   -  21 November 2007 (USA) 
  Users: 7.4/10 (79,137 votes) 892 reviews | Critics: 297 reviews 
  A freak storm unleashes a species of blood-thirsty creatures on a small town, where a small band of   citizens hole-up in a supermarket and fight for their lives. 


Director: Frank Darabont
Writers: Frank Darabont (screenplay), Stephen King (novel)
Stars:Thomas Jane, Marcia Gay Harden and Laurie Holden

Storyline
Everyone thought of it as a harmless lightning storm. When Dave Drayton notices a strange mist on the lake, he thinks nothing of it. When his son, Billy Drayton, his neighbor Brent Norton, and himself travel to the supermarket, the unthinkable happens. On their way to the market, they see the army, the firefighters, and the police, heading toward the mist. When he sees this Brent mentions something about "Project Arrowhead", a secret military plan that no one knows about. As they are shopping, they see three army men walk in, just to pick up a few things then head toward the mist. All eighty of the store's shoppers had no clue what was going on until an old man runs in the market with a bloody nose and declares "Something in the mist!" He tells them to close the door. About five seconds after they do close the door, the entire store shakes, as though it was lifted feet above the ground. When David is asked to check on the generator... 

Plot Keywords:Mist | Creature | Supermarket | Tentacle | Fight  

Format : Matroska 
File size : 7.97 GiB 
Duration : 2h 5mn 
Overall bit rate : 9 051 Kbps 
Encoded date : UTC 2010-11-24 01:34:52 
Writing application : mkvmerge v4.4.0 ('Die Wiederkehr') built on Oct 31 2010 21:52:48 
Writing library : libebml v1.0.0 + libmatroska v1.0.0 

Video 
ID : 1 
Format : AVC 
Format/Info : Advanced Video Codec 
Format profile : High@L4.1 
Format settings, CABAC : Yes 
Format settings, ReFrames : 7 frames 
Muxing mode : Container profile=Unknown@4.1 
Codec ID : V_MPEG4/ISO/AVC 
Duration : 2h 5mn 
Bit rate : 8 394 Kbps 
Width : 1 920 pixels 
Height : 1 040 pixels 
Display aspect ratio : 16:9 
Frame rate : 23.976 fps 
Color space : YUV 
Chroma subsampling : 4:2:0 
Bit depth : 8 bits 
Scan type : Progressive 
Bits/(Pixel*Frame) : 0.175 
Stream size : 7.24 GiB (91%) 
Writing library : x264 core 98 r1649 c54c47d 
Encoding settings : cabac=1 / ref=8 / deblock=1:0:0 / analyse=0x3:0x133 / me=umh / subme=9 / psy=1 / psy_rd=1.00:0.15 / mixed_ref=1 / me_range=24 / chroma_me=1 / trellis=1 / 8x8dct=1 / cqm=0 / deadzone=21,11 / fast_pskip=1 / chroma_qp_offset=-3 / threads=6 / sliced_threads=0 / nr=0 / decimate=1 / interlaced=0 / constrained_intra=0 / bframes=5 / b_pyramid=1 / b_adapt=1 / b_bias=0 / direct=1 / weightb=1 / weightp=2 / keyint=250 / keyint_min=25 / scenecut=40 / intra_refresh=0 / rc_lookahead=50 / rc=2pass / mbtree=1 / bitrate=8394 / ratetol=1.0 / qcomp=0.60 / qpmin=10 / qpmax=51 / qpstep=4 / cplxblur=20.0 / qblur=0.5 / ip_ratio=1.40 / aq=1:1.50 
Language : English 

Audio 
ID : 2 
Format : AC-3 
Format/Info : Audio Coding 3 
Mode extension : CM (complete main) 
Codec ID : A_AC3 
Duration : 2h 5mn 
Bit rate mode : Constant 
Bit rate : 640 Kbps 
Channel(s) : 6 channels 
Channel positions : Front: L C R, Side: L R, LFE 
Sampling rate : 48.0 KHz 
Bit depth : 16 bits 
Stream size : 577 MiB (7%) 
Title : 3/2+1 
Language : English 

Text #1 
Language : English 

Text #2 
Language : Spanish 

Menu & Chapters 17[/color]


See the full size 1980x1040 PNG files at the link below
 
http://s1015.photobucket.com/albums/af279/tequila-bob/Stephen%20Kings%20The%20Mist%20Bluray%202007/
